<svg xmlns="http://www.w3.org/2000/svg" width="1280" height="480" viewBox="0 0 1280 480" role="img"><title>Construction to Digital — Construction workflows, clearly explained.</title><defs><pattern id="grid" width="40" height="40" patternUnits="userSpaceOnUse"><path d="M40 0H0V40" fill="none" stroke="#142134"/></pattern><radialGradient id="halo"><stop stop-color="#00DFFF" stop-opacity=".13"/><stop offset="1" stop-color="#00DFFF" stop-opacity="0"/></radialGradient><linearGradient id="signal"><stop stop-color="#00DFFF"/><stop offset="1" stop-color="#FF00CC"/></linearGradient></defs><rect x="0" y="0" width="1280" height="480" rx="16" fill="#080C14" stroke="none"/><rect x="760" y="0" width="520" height="480" rx="0" fill="url(#grid)" stroke="none"/><ellipse cx="1006" cy="235" rx="270" ry="235" fill="url(#halo)"/><rect x="32" y="24" width="1216" height="2" rx="0" fill="url(#signal)" stroke="none"/><text x="48" y="62" fill="#00DFFF" font-family="monospace" font-size="12" font-weight="400" letter-spacing="1.6">COJOVI / CONSTRUCTION</text><text x="1230" y="62" fill="#91A4BA" font-family="monospace" font-size="11" font-weight="400" text-anchor="end" letter-spacing="1">CONSTRUCTION TO DIGITAL</text><text x="48" y="121" fill="#91A4BA" font-family="monospace" font-size="14" font-weight="400" letter-spacing="1">PHYSICAL WORK. DIGITAL LEVERAGE.</text><text x="43" y="192" fill="#F2F6FC" font-family="Arial, Helvetica, sans-serif" font-size="76" font-weight="900" letter-spacing="-3">PHYSICAL WORK.</text><text x="43" y="258" fill="#F2F6FC" font-family="Arial, Helvetica, sans-serif" font-size="76" font-weight="900" letter-spacing="-3">DIGITAL SIGNAL</text><rect x="52" y="278" width="64" height="4" rx="0" fill="#00DFFF" stroke="none"/><rect x="124" y="278" width="24" height="4" rx="0" fill="#FF00CC" stroke="none"/><text x="48" y="330" fill="#F2F6FC" font-family="Arial, Helvetica, sans-serif" font-size="27.84503631961259" font-weight="500" >Construction workflows, clearly explained.</text><text x="48" y="365" fill="#91A4BA" font-family="Arial, Helvetica, sans-serif" font-size="18" font-weight="400" >A Next.js marketing site for people and machine readers.</text><circle cx="1006" cy="238" r="160" fill="none" stroke="#213449" stroke-width="2"/><path d="M843 237L943 147L1044 237M863 220V338H1022V220M906 338V265H951V338" fill="none" stroke="#00DFFF" stroke-width="3" stroke-linecap="round" stroke-linejoin="round"/><rect x="1056" y="180" width="117" height="133" rx="7" fill="#0E1624" stroke="#FF00CC"/><path d="M1071 207 L1157 207" fill="none" stroke="#91A4BA" stroke-width="2"/><path d="M1071 230 L1157 230" fill="none" stroke="#91A4BA" stroke-width="2"/><path d="M1071 253 L1124 253" fill="none" stroke="#91A4BA" stroke-width="2"/><path d="M1101 277L1146 309L1118 313L1107 338Z" fill="#080C14" stroke="#F2F6FC" stroke-width="2" stroke-linecap="round" stroke-linejoin="round"/><text x="1006" y="403" fill="#00DFFF" font-family="monospace" font-size="11" font-weight="400" text-anchor="middle" letter-spacing=".5">TRADE KNOWLEDGE / DIGITAL CRAFT</text><path d="M48 425 L1232 425" fill="none" stroke="#26364C" stroke-width="2"/><text x="48" y="454" fill="#91A4BA" font-family="monospace" font-size="11" font-weight="400" letter-spacing=".7">PLANS / SYSTEMS / CONTEXT</text><text x="1230" y="454" fill="#00DFFF" font-family="monospace" font-size="11" font-weight="400" text-anchor="end" letter-spacing=".7">INFORMATION, NOT EXECUTION</text></svg>
